<?xml version="1.0" encoding="UTF-8" standalone="no"?>
<!-- Created with Inkscape (http://www.inkscape.org/) -->

<svg
   xmlns:dc="http://purl.org/dc/elements/1.1/"
   xmlns:cc="http://creativecommons.org/ns#"
   xmlns:rdf="http://www.w3.org/1999/02/22-rdf-syntax-ns#"
   xmlns:svg="http://www.w3.org/2000/svg"
   xmlns="http://www.w3.org/2000/svg"
   xmlns:sodipodi="http://sodipodi.sourceforge.net/DTD/sodipodi-0.dtd"
   xmlns:inkscape="http://www.inkscape.org/namespaces/inkscape"
   width="51.20406mm"
   height="43.309834mm"
   viewBox="0 0 51.20406 43.309834"
   version="1.1"
   id="svg5499"
   inkscape:version="0.92.2 (5c3e80d, 2017-08-06)"
   sodipodi:docname="dhcpcanon.svg">
  <title
     id="title6096">dhcpcanon</title>
  <defs
     id="defs5493" />
  <sodipodi:namedview
     id="base"
     pagecolor="#ffffff"
     bordercolor="#666666"
     borderopacity="1.0"
     inkscape:pageopacity="0.0"
     inkscape:pageshadow="2"
     inkscape:zoom="0.98994949"
     inkscape:cx="22.38924"
     inkscape:cy="107.55964"
     inkscape:document-units="mm"
     inkscape:current-layer="layer1"
     showgrid="false"
     fit-margin-top="0"
     fit-margin-left="0"
     fit-margin-right="0"
     fit-margin-bottom="0"
     inkscape:window-width="1024"
     inkscape:window-height="704"
     inkscape:window-x="0"
     inkscape:window-y="27"
     inkscape:window-maximized="1" />
  <metadata
     id="metadata5496">
    <rdf:RDF>
      <cc:Work
         rdf:about="">
        <dc:format>image/svg+xml</dc:format>
        <dc:type
           rdf:resource="http://purl.org/dc/dcmitype/StillImage" />
        <dc:title>dhcpcanon</dc:title>
        <dc:date>2017</dc:date>
        <dc:creator>
          <cc:Agent>
            <dc:title>juga</dc:title>
          </cc:Agent>
        </dc:creator>
        <dc:contributor>
          <cc:Agent>
            <dc:title>Based on other images from openclipart.org</dc:title>
          </cc:Agent>
        </dc:contributor>
        <cc:license
           rdf:resource="http://creativecommons.org/licenses/by-sa/4.0/" />
      </cc:Work>
      <cc:License
         rdf:about="http://creativecommons.org/licenses/by-sa/4.0/">
        <cc:permits
           rdf:resource="http://creativecommons.org/ns#Reproduction" />
        <cc:permits
           rdf:resource="http://creativecommons.org/ns#Distribution" />
        <cc:requires
           rdf:resource="http://creativecommons.org/ns#Notice" />
        <cc:requires
           rdf:resource="http://creativecommons.org/ns#Attribution" />
        <cc:permits
           rdf:resource="http://creativecommons.org/ns#DerivativeWorks" />
        <cc:requires
           rdf:resource="http://creativecommons.org/ns#ShareAlike" />
      </cc:License>
    </rdf:RDF>
  </metadata>
  <g
     inkscape:label="Layer 1"
     inkscape:groupmode="layer"
     id="layer1"
     transform="translate(-90.814636,-133.98199)">
    <path
       inkscape:connector-curvature="0"
       style="fill:#000100;fill-opacity:1;stroke:none;stroke-width:0.56444448;stroke-linecap:round;stroke-linejoin:round;stroke-dashoffset:3.00300002"
       sodipodi:nodetypes="ccccccccccc"
       d="m 92.358446,152.65752 c -1.080942,0.94999 -2.465369,1.54477 -0.698423,4.43474 l 10.672087,18.48461 c 0.84667,1.46645 2.20831,2.5382 4.10048,0.86683 l 29.95777,-16.94564 c 2.27941,-1.12842 2.38609,-1.72328 2.88846,-4.02815 l 2.67279,-12.47325 c 0.40042,-2.26785 -1.05039,-4.06961 -2.789,-4.6718 l -12.12517,-4.05963 c -2.40276,-0.71689 -2.75942,0.087 -3.94328,0.64725 z"
       id="path4296-8-3-3-3-3" />
    <ellipse
       ry="2.025481"
       rx="2.0708435"
       cy="192.28659"
       cx="48.099716"
       style="fill:#ffffff;stroke:none;stroke-width:0.28222224;stroke-linecap:round;stroke-linejoin:round;stroke-dashoffset:3.00300002"
       id="path4298-3-9-8-5-1"
       transform="rotate(-30)" />
    <rect
       x="4.147069"
       y="181.24625"
       width="35.918423"
       height="21.914557"
       ry="2.1899033"
       style="fill:#ffffff;stroke:none;stroke-width:0.28222224;stroke-linecap:round;stroke-linejoin:round;stroke-dashoffset:3.00300002"
       id="rect4300-8-2-0-6-1"
       transform="rotate(-30)" />
    <g
       transform="matrix(0.03211542,0,0,0.03211542,97.977103,149.08176)"
       id="g46-9-6-0-7-9-1-6-9-9-4"
       style="fill:none;fill-opacity:1;stroke:#000000;stroke-opacity:0.99599998">
      <path
         inkscape:connector-curvature="0"
         style="fill:none;fill-opacity:1;fill-rule:evenodd;stroke:#000000;stroke-width:4;stroke-linecap:butt;stroke-linejoin:miter;stroke-miterlimit:4;stroke-dasharray:none;stroke-opacity:0.99599998"
         sodipodi:nodetypes="ccc"
         id="path2055-17-5-9-8-9-4-47-9-0-0"
         d="m 210.33263,597.59062 c 24.34039,1.7751 72.37863,4.11443 107.43948,3.06835 22.85738,18.18785 42.32935,35.24724 70.82908,46.10004" />
      <path
         inkscape:connector-curvature="0"
         style="fill:none;fill-opacity:1;fill-rule:evenodd;stroke:#000000;stroke-width:4;stroke-linecap:butt;stroke-linejoin:miter;stroke-miterlimit:4;stroke-dasharray:none;stroke-opacity:0.99599998"
         sodipodi:nodetypes="ccc"
         id="path2057-85-8-1-2-6-3-4-3-7-3"
         d="m 210.64971,582.31882 c 106.41837,3.34794 119.85766,2.25694 123.80731,0 17.91906,15.09621 35.2739,27.93549 60.52802,38.51783" />
      <path
         inkscape:connector-curvature="0"
         style="fill:none;fill-opacity:1;fill-rule:evenodd;stroke:#000000;stroke-width:4;stroke-linecap:butt;stroke-linejoin:miter;stroke-miterlimit:4;stroke-dasharray:none;stroke-opacity:0.99599998"
         sodipodi:nodetypes="ccc"
         id="path2059-74-6-9-9-2-1-8-2-6-9"
         d="m 210.97181,554.38165 c 49.43066,5.60488 134.59767,-6.84576 151.52471,-22.08009 3.60182,30.54361 41.62197,47.54558 64.40777,67.93297" />
      <path
         inkscape:connector-curvature="0"
         style="fill:none;fill-opacity:1;fill-rule:evenodd;stroke:#000000;stroke-width:4;stroke-linecap:butt;stroke-linejoin:miter;stroke-miterlimit:4;stroke-dasharray:none;stroke-opacity:0.99599998"
         sodipodi:nodetypes="ccc"
         id="path2061-1-2-6-9-5-4-5-4-3-1"
         d="m 206.98469,566.37541 c 75.9497,3.91218 115.52107,3.77238 139.21893,-5.81961 15.41496,15.34338 47.19272,43.09993 70.50696,54.49367" />
      <path
         inkscape:connector-curvature="0"
         style="fill:none;fill-opacity:1;fill-rule:evenodd;stroke:#000000;stroke-width:4;stroke-linecap:butt;stroke-linejoin:miter;stroke-miterlimit:4;stroke-dasharray:none;stroke-opacity:0.99599998"
         sodipodi:nodetypes="czzzzc"
         id="path4365-85-8-9-6-4-6-8-3-7-9"
         d="m 209.10183,542.84475 c 92.46194,-3.23036 192.6731,-56.27152 207.8051,-73.2735 15.91405,-17.88066 5.98163,-47.03857 -6.3991,-59.4193 -12.38073,-12.38073 -50.17994,-27.18423 -65.31195,-14.8035 -15.13201,12.38073 -34.44452,58.54475 -41.25003,73.17948 -7.0205,15.09705 -23.5879,63.03472 -61.2893,71.04138" />
      <path
         inkscape:connector-curvature="0"
         style="fill:none;fill-opacity:1;fill-rule:evenodd;stroke:#000000;stroke-width:4;stroke-linecap:butt;stroke-linejoin:miter;stroke-miterlimit:4;stroke-dasharray:none;stroke-opacity:0.99599998"
         sodipodi:nodetypes="csccc"
         id="path5883-9-4-3-0-4-9-2-7-6-6"
         d="m 294.38628,511.7369 c 46.77166,-6.87818 113.06164,-39.98879 116.45005,-53.32132 6.81659,-26.82149 -17.40419,-51.97306 -35.28747,-51.97306 -17.88328,0 -29.69596,4.69496 -37.94978,22.57824 -11.66212,35.49278 -43.2128,82.71614 -43.2128,82.71614 z" />
      <path
         inkscape:connector-curvature="0"
         style="fill:none;fill-opacity:1;fill-rule:evenodd;stroke:#000000;stroke-width:4;stroke-linecap:butt;stroke-linejoin:miter;stroke-miterlimit:4;stroke-dasharray:none;stroke-opacity:0.99599998"
         sodipodi:nodetypes="cscc"
         id="path5885-7-7-3-2-9-4-6-1-1-9"
         d="m 323.27466,493.85363 c 42.64474,-6.87819 65.54814,-28.15272 70.15748,-38.51784 10.70395,-24.0702 -8.34279,-35.61598 -24.85043,-34.24035 -21.62009,2.51174 -27.69755,56.85283 -45.30705,72.75819 z" />
      <path
         inkscape:connector-curvature="0"
         style="fill:none;fill-opacity:1;fill-rule:evenodd;stroke:#000000;stroke-width:4;stroke-linecap:butt;stroke-linejoin:miter;stroke-miterlimit:4;stroke-dasharray:none;stroke-opacity:0.99599998"
         sodipodi:nodetypes="csc"
         id="path5887-5-2-8-7-9-2-0-2-5-3"
         d="m 349.41176,474.59471 c 34.39092,-13.75637 42.3971,-34.64315 31.07159,-39.17485 -19.68449,-7.8764 -23.68696,30.65412 -31.07159,39.17485 z" />
      <path
         inkscape:connector-curvature="0"
         style="fill:none;fill-opacity:1;fill-rule:evenodd;stroke:#000000;stroke-width:4;stroke-linecap:butt;stroke-linejoin:miter;stroke-miterlimit:4;stroke-opacity:0.99599998"
         sodipodi:nodetypes="ccc"
         id="path2847-3-4-0-6-3-2-6-2-0-3"
         d="m 279.33424,541.78619 c 14.02684,-1.40602 84.47715,-18.04638 96.24705,-32.42981 -3.52522,31.54849 55.06294,77.36895 60.70529,79.06166" />
      <path
         inkscape:connector-curvature="0"
         style="fill:none;fill-opacity:1;fill-rule:evenodd;stroke:#000000;stroke-width:4;stroke-linecap:butt;stroke-linejoin:miter;stroke-miterlimit:4;stroke-dasharray:none;stroke-opacity:0.99599998"
         sodipodi:nodetypes="cc"
         id="path6649-8-0-5-1-6-6-6-0-6-8"
         d="m 396.57037,493.53655 c -9.38228,23.13866 36.29837,77.77718 49.84,81.72682" />
      <path
         inkscape:connector-curvature="0"
         style="fill:none;fill-opacity:1;fill-rule:evenodd;stroke:#000000;stroke-width:4;stroke-linecap:butt;stroke-linejoin:miter;stroke-miterlimit:4;stroke-dasharray:none;stroke-opacity:0.99599998"
         sodipodi:nodetypes="csssssss"
         id="path6651-8-6-6-3-0-4-4-2-5-0"
         d="m 204.83009,521.82323 c 20.63455,1.37564 48.78991,-6.31935 61.58659,-18.76458 8.41597,-8.18483 24.5842,-39.96337 31.46238,-57.84665 6.87819,-17.88328 30.89814,-66.91186 51.5327,-69.66314 20.63455,-2.75127 55.02547,6.87818 71.53311,27.51273 16.50765,20.63456 18.20262,57.49439 17.88329,60.52802 -2.43194,23.10347 -20.63456,17.88328 -24.76147,31.63965 -4.12691,13.75637 34.39092,64.65493 34.39092,64.65493" />
      <path
         inkscape:connector-curvature="0"
         style="fill:none;fill-opacity:1;fill-rule:evenodd;stroke:#000000;stroke-width:4;stroke-linecap:butt;stroke-linejoin:miter;stroke-miterlimit:4;stroke-dasharray:none;stroke-opacity:0.99599998"
         sodipodi:nodetypes="csssssc"
         id="path7416-3-2-6-2-5-1-6-1-0-5"
         d="m 213.22371,497.98054 c 42.64474,-2.75128 56.40111,-28.88838 68.78184,-56.40111 12.38073,-27.51274 25.63066,-69.32253 53.14339,-76.20071 27.51274,-6.87819 58.58434,-7.44623 87.47271,13.18832 28.88837,20.63455 33.58334,44.95117 35.1369,67.5294 1.53724,22.34092 -6.54967,43.63028 -14.80349,50.50846 -8.25382,6.87818 13.75637,50.89856 13.75637,50.89856" />
      <path
         inkscape:connector-curvature="0"
         style="fill:none;fill-opacity:1;fill-rule:evenodd;stroke:#000000;stroke-width:4;stroke-linecap:butt;stroke-linejoin:miter;stroke-miterlimit:4;stroke-dasharray:none;stroke-opacity:0.99599998"
         sodipodi:nodetypes="csssssc"
         id="path7418-1-9-4-1-0-2-2-7-8-6"
         d="m 215.97498,478.72162 c 35.76656,0 59.72044,-64.38802 66.03057,-85.28948 4.09334,-13.55864 41.88273,-57.07384 67.46781,-64.7439 44.8827,-13.45523 95.42539,-4.12691 111.78246,13.57842 17.95601,19.43608 25.71962,60.79493 20.21707,92.43458 -5.50254,31.63965 -24.76146,56.40111 -23.38582,66.03057 1.37563,9.62946 9.62946,20.63455 9.62946,20.63455" />
      <path
         inkscape:connector-curvature="0"
         style="fill:none;fill-opacity:1;fill-rule:evenodd;stroke:#000000;stroke-width:4;stroke-linecap:butt;stroke-linejoin:miter;stroke-miterlimit:4;stroke-dasharray:none;stroke-opacity:0.99599998"
         sodipodi:nodetypes="cssssss"
         id="path8178-89-9-0-5-2-8-8-5-1-6"
         d="m 228.11618,449.83325 c 12.38073,0 45.51973,-71.73315 65.13401,-95.5486 21.39069,-25.97235 70.49141,-46.16472 95.24745,-46.68268 54.29998,-1.1361 91.34953,23.79094 100.81161,42.55577 9.37,18.58224 16.21909,44.22211 13.51682,68.36436 -2.95048,26.35982 -19.8072,57.85876 -20.21708,67.0777 -0.41748,9.38993 -2.36116,15.85063 2.75128,19.25892" />
      <path
         inkscape:connector-curvature="0"
         style="fill:none;fill-opacity:1;fill-rule:evenodd;stroke:#000000;stroke-width:4;stroke-linecap:butt;stroke-linejoin:miter;stroke-miterlimit:4;stroke-dasharray:none;stroke-opacity:0.99599998"
         sodipodi:nodetypes="cssss"
         id="path8180-6-0-0-9-9-8-9-1-2-4"
         d="m 327.40157,299.88883 c 34.39092,-30.26401 64.09658,-30.21689 92.16767,-26.1371 24.83725,3.60979 65.96067,17.14178 77.03566,31.63965 11.9565,15.65182 20.38739,36.08362 22.01019,53.64984 1.78962,19.37195 0.49433,43.88057 -1.19837,49.52292" />
      <path
         inkscape:connector-curvature="0"
         style="fill:none;fill-opacity:1;fill-rule:evenodd;stroke:#000000;stroke-width:4;stroke-linecap:butt;stroke-linejoin:miter;stroke-miterlimit:4;stroke-opacity:0.99599998"
         sodipodi:nodetypes="csss"
         id="path2075-4-8-4-9-4-9-6-7-2-0"
         d="m 317.74475,362.37416 c 34.39092,-30.26401 57.30282,-26.96262 85.35109,-22.72881 27.67749,4.17784 46.64702,14.30154 57.72201,28.79941 11.9565,15.65182 7.89032,55.39726 9.51312,72.96348" />
      <path
         inkscape:connector-curvature="0"
         style="fill:none;fill-opacity:1;fill-rule:evenodd;stroke:#000000;stroke-width:4;stroke-linecap:butt;stroke-linejoin:miter;stroke-miterlimit:4;stroke-opacity:0.99599998"
         sodipodi:nodetypes="csss"
         id="path2077-33-1-6-1-3-2-0-4-6-0"
         d="m 308.08792,325.45101 c 34.39092,-30.26401 76.97939,-37.18299 105.23279,-34.65782 27.67749,2.47369 64.25652,16.57373 75.33151,31.0716 11.9565,15.65182 16.9791,26.99484 18.6019,44.56106" />
      <path
         inkscape:connector-curvature="0"
         style="fill:none;fill-opacity:1;fill-rule:evenodd;stroke:#000000;stroke-width:4;stroke-linecap:butt;stroke-linejoin:miter;stroke-miterlimit:4;stroke-opacity:0.99599998"
         sodipodi:nodetypes="css"
         id="path2079-3-3-2-4-5-8-7-1-9-4"
         d="m 350.69156,352.14929 c 21.89386,-6.40597 39.26355,-2.4475 66.6055,5.10557 25.40529,7.01808 39.26238,33.04714 42.3847,49.24915" />
    </g>
    <text
       xml:space="preserve"
       style="font-style:normal;font-variant:normal;font-weight:normal;font-stretch:normal;font-size:4.02489758px;line-height:1.25;font-family:monospace;-inkscape-font-specification:monospace;font-variant-ligatures:normal;font-variant-caps:normal;font-variant-numeric:normal;font-feature-settings:normal;text-align:start;letter-spacing:0px;word-spacing:0px;writing-mode:lr-tb;text-anchor:start;fill:none;fill-opacity:1;stroke:#000100;stroke-width:0.46432865;stroke-miterlimit:4;stroke-dasharray:none;stroke-opacity:1"
       x="7.0977931"
       y="189.94374"
       id="text1291-7-5-9-0-8-9-5-0"
       transform="rotate(-30)"><tspan
         sodipodi:role="line"
         id="tspan1289-7-6-8-4-3-7-9-3"
         x="7.0977931"
         y="189.94374"
         style="fill:none;fill-opacity:1;stroke:#000100;stroke-width:0.46432865;stroke-miterlimit:4;stroke-dasharray:none;stroke-opacity:1">192.168.1.23</tspan></text>
  </g>
</svg>
